<?xml version="1.0" encoding="UTF-8"?><svg id="Layer_1" xmlns="http://www.w3.org/2000/svg" viewBox="0 0 192 192"><defs><style>.cls-1{fill:#fff;}</style></defs><path class="cls-1" d="M136.08,26.65c1.8-3.11,3.61-6.25,5.42-9.38,.75-1.3,1.5-2.6,2.25-3.9,.15-.27,.21-.62,.71-.32,.48,.28,.17,.48,.04,.71-2.42,4.21-4.86,8.41-7.27,12.63-.31,.55-.56,.89-1.14,.27Z"/><path class="cls-1" d="M56.25,165.04c-1.79,3.11-3.61,6.24-5.41,9.38-.74,1.28-1.47,2.57-2.22,3.84-.15,.25-.17,.72-.73,.39-.59-.35-.1-.6,.02-.82,2.39-4.18,4.81-8.34,7.2-12.51,.31-.54,.55-.91,1.14-.27Z"/><path class="cls-1" d="M13.46,47.14c3.96,2.28,7.76,4.47,11.57,6.67,.67,.39,1.32,.8,2.01,1.16,.35,.18,.34,.31,.19,.65-.18,.4-.36,.24-.59,.11-4.36-2.52-8.71-5.04-13.08-7.54-.71-.4,.1-.62-.09-1.04Z"/><path class="cls-1" d="M179.11,143.82c-.1,.18-.19,.39-.33,.55-.15,.17-.28-.04-.39-.11-4.38-2.52-8.75-5.06-13.14-7.57-.41-.24-.2-.4-.1-.67,.16-.42,.36-.17,.54-.07,4.36,2.51,8.72,5.03,13.08,7.55,.13,.07,.3,.11,.34,.31Z"/><path class="cls-1" d="M48.27,12.88c.48-.49,.75-.38,1.09,.22,2.42,4.26,4.89,8.5,7.33,12.75,.09,.16,.47,.37,0,.6-.32,.16-.49,.25-.71-.15-2.55-4.45-5.11-8.88-7.67-13.32-.02-.04-.03-.08-.03-.11Z"/><path class="cls-1" d="M136.03,165.05c.22,.02,.25,.26,.34,.41,1.54,2.65,3.07,5.31,4.61,7.97,.96,1.66,1.92,3.33,2.88,4.99,.13,.23,.32,.41-.09,.6-.31,.15-.44,.2-.65-.16-2.5-4.37-5.03-8.72-7.55-13.08-.19-.33,.03-.72,.44-.73Z"/><path class="cls-1" d="M179.5,48.6c0,.2-.25,.21-.4,.3-2.79,1.62-5.58,3.24-8.37,4.85-1.55,.9-3.1,1.79-4.65,2.68-.2,.12-.38,.29-.54-.09-.11-.28-.27-.44,.12-.67,4.39-2.51,8.76-5.05,13.14-7.57,.28-.16,.65,.07,.7,.5Z"/><path class="cls-1" d="M26.97,135.72c-.02,.22-.25,.25-.41,.34-2.64,1.53-5.27,3.05-7.91,4.58-1.66,.96-3.33,1.92-4.99,2.88-.21,.12-.41,.42-.66-.04-.2-.38-.11-.49,.22-.68,4.35-2.5,8.68-5.01,13.02-7.52,.33-.19,.71,.03,.74,.44Z"/><path class="cls-1" d="M184.06,95.84c2.46,0,4.92,0,7.38,0,.27,0,.55-.09,.55,.4,0,.49-.29,.4-.56,.4-4.97,0-9.93,0-14.9,0-.27,0-.55,.09-.55-.4,0-.49,.29-.4,.56-.4,2.51,0,5.01,0,7.52,0Z"/><path class="cls-1" d="M96.17,7.93c0-2.46,0-4.92,0-7.38,0-.28-.08-.55,.4-.55,.49,0,.4,.29,.4,.56,0,4.97,0,9.93,0,14.9,0,.28,.08,.55-.4,.55-.49,0-.4-.29-.4-.56,0-2.51,0-5.01,0-7.52Z"/><path class="cls-1" d="M8.27,95.84c-2.46,0-4.92,0-7.38,0-.27,0-.55,.09-.55-.4,0-.49,.28-.4,.56-.4,4.97,0,9.93,0,14.9,0,.27,0,.55-.09,.55,.4,0,.49-.28,.4-.56,.4-2.51,0-5.01,0-7.52,0Z"/><path class="cls-1" d="M95.37,183.62c0-2.46,0-4.92,0-7.38,0-.27-.09-.55,.4-.55,.49,0,.4,.28,.4,.56,0,4.97,0,9.93,0,14.9,0,.27,.09,.55-.4,.55-.49,0-.4-.28-.4-.56,0-2.51,0-5.01,0-7.52Z"/><path class="cls-1" d="M3.47,72.32c.88,.22,1.76,.43,2.64,.65,4.03,1.01,8.06,2.02,12.09,3.03,.06,.02,.14,.01,.19,.04,.14,.06,.39,.02,.33,.31-.07,.33-.28,.11-.41,.08-1.1-.26-2.19-.53-3.28-.81-3.77-.94-7.55-1.88-11.32-2.82-.11-.03-.21-.07-.32-.09-.12-.03-.19-.09-.14-.23,.04-.12,.09-.2,.22-.15Z"/><path class="cls-1" d="M115.55,18.08c.6-2.4,1.19-4.8,1.79-7.21,.62-2.49,1.24-4.97,1.86-7.46,0-.02,0-.05,.01-.06,.13-.13-.03-.53,.34-.42,.32,.1,.09,.33,.05,.49-.27,1.14-.55,2.28-.83,3.41-.92,3.69-1.84,7.37-2.77,11.06-.03,.11-.05,.22-.08,.32-.04,.14-.11,.23-.29,.18-.21-.06-.11-.19-.09-.31Z"/><path class="cls-1" d="M189.1,119.06c-.03,.41-.22,.31-.42,.26-1.5-.38-3-.75-4.5-1.12-3.37-.84-6.73-1.68-10.1-2.52-.02,0-.05,0-.07-.01-.16-.07-.46-.01-.4-.31,.07-.37,.33-.11,.47-.08,1.85,.44,3.69,.9,5.53,1.36,2.98,.74,5.96,1.49,8.94,2.23,.2,.05,.38,.13,.55,.19Z"/><path class="cls-1" d="M76.8,173.51c-.31,1.24-.61,2.46-.91,3.69-.91,3.67-1.83,7.33-2.75,11-.03,.11-.05,.22-.09,.32-.05,.13-.02,.33-.27,.25-.25-.07-.14-.23-.1-.37,.24-.94,.48-1.88,.71-2.83,.98-3.92,1.96-7.85,2.93-11.77,.03-.13,.06-.26,.1-.38,.04-.13,.12-.16,.25-.13,.13,.04,.19,.1,.12,.22Z"/><path class="cls-1" d="M147.22,14.89c-.06,.09-.12,.19-.18,.28-2.66,4.26-5.32,8.52-7.99,12.78-.08,.13-.08,.47-.38,.28-.29-.18-.03-.35,.06-.49,2.67-4.28,5.34-8.56,8.02-12.84,.06-.1,.05-.34,.29-.26,.11,.04,.19,.11,.18,.24Z"/><path class="cls-1" d="M45.36,177.06c-.34-.11-.24-.28-.12-.47,.4-.64,.8-1.27,1.2-1.91,2.26-3.62,4.53-7.25,6.79-10.87,.09-.15,.19-.29,.31-.42,.01-.02,.18,.05,.22,.12,.12,.2-.07,.32-.16,.46-1.84,2.95-3.68,5.9-5.52,8.85-.82,1.31-1.64,2.63-2.47,3.94-.07,.11-.08,.3-.25,.3Z"/><path class="cls-1" d="M15.16,44.75c.14,.09,.25,.16,.36,.23,4.26,2.66,8.52,5.32,12.78,7.99,.12,.08,.46,.09,.25,.39-.17,.24-.32,.02-.44-.06-4.3-2.68-8.6-5.37-12.89-8.06-.1-.06-.36-.06-.22-.3,.04-.07,.11-.12,.17-.19Z"/><path class="cls-1" d="M163.98,138.22c.11,.07,.23,.14,.34,.21,4.24,2.65,8.48,5.3,12.72,7.96,.13,.08,.47,.08,.29,.38-.17,.29-.34,.04-.49-.05-4.28-2.67-8.56-5.35-12.84-8.03-.1-.07-.34-.05-.26-.29,.03-.11,.11-.19,.24-.18Z"/><path class="cls-1" d="M189.62,75.99c.15-.05,.28-.03,.31,.14,.04,.27-.2,.24-.36,.28-1.62,.35-3.24,.7-4.87,1.04-3.29,.7-6.58,1.39-9.87,2.08-.17,.04-.41,.22-.51-.06-.12-.34,.22-.27,.37-.3,4.91-1.05,9.82-2.1,14.73-3.14,.06-.01,.13-.02,.2-.03Z"/><path class="cls-1" d="M79.91,17.39c.01,.13,.04,.27-.15,.31-.25,.05-.23-.14-.26-.28-.34-1.6-.69-3.2-1.03-4.8-.69-3.25-1.38-6.49-2.07-9.74-.02-.09-.06-.17-.06-.26,.02-.19-.24-.49,.13-.54,.27-.04,.22,.27,.26,.45,.44,2.03,.88,4.07,1.31,6.1,.6,2.84,1.2,5.67,1.79,8.51,.02,.09,.05,.17,.07,.26Z"/><path class="cls-1" d="M8.91,56.55c.12,.05,.24,.11,.36,.16,4.52,2.01,9.05,4.03,13.57,6.04,.14,.06,.28,.13,.42,.2,.1,.05,.1,.13,.04,.21-.05,.07-.07,.18-.19,.14-.13-.04-.24-.1-.37-.16-4.55-2.02-9.09-4.04-13.64-6.06-.12-.05-.25-.1-.35-.18-.05-.04-.04-.16-.04-.24,0-.1,.07-.16,.18-.12Z"/><path class="cls-1" d="M169.18,128.36c.18,.08,.3,.14,.42,.19,4.52,2.01,9.05,4.02,13.57,6.04,.12,.05,.24,.11,.36,.17,.12,.07,.09,.18,.06,.29-.05,.18-.17,.08-.26,.05-.08-.03-.16-.07-.24-.11-4.56-2.03-9.13-4.07-13.69-6.1-.1-.04-.2-.09-.3-.14-.09-.04-.15-.1-.09-.2,.05-.08,.13-.15,.17-.2Z"/><path class="cls-1" d="M2.7,115.7c-.15,.05-.29,.01-.3-.15-.02-.26,.22-.23,.38-.27,1.82-.39,3.63-.78,5.45-1.16,3.09-.66,6.19-1.31,9.29-1.96,.17-.04,.4-.21,.5,.08,.1,.29-.18,.25-.32,.28-4.95,1.06-9.91,2.11-14.86,3.17-.04,0-.09,.01-.13,.02Z"/><path class="cls-1" d="M128.95,23.02c-.39-.13-.22-.33-.15-.49,.6-1.35,1.21-2.71,1.81-4.06,1.43-3.21,2.86-6.42,4.29-9.64,.05-.12,.1-.24,.17-.36,.06-.12,.17-.11,.29-.08,.18,.05,.1,.16,.07,.25-.03,.1-.09,.2-.13,.3-2.01,4.52-4.03,9.05-6.05,13.57-.08,.18-.11,.42-.29,.49Z"/><path class="cls-1" d="M116.03,189.33c.05,.16,0,.28-.17,.29-.22,.02-.22-.18-.25-.32-.26-1.21-.52-2.42-.77-3.64-.79-3.72-1.58-7.45-2.36-11.17-.04-.17-.21-.42,.09-.49,.34-.08,.25,.25,.28,.4,1.05,4.89,2.09,9.78,3.13,14.67,.02,.09,.03,.18,.04,.26Z"/><path class="cls-1" d="M57.13,183.31c-.25-.01-.3-.11-.21-.3,.17-.36,.33-.72,.49-1.09,1.88-4.22,3.76-8.44,5.63-12.67,.07-.16,.15-.32,.22-.48,.04-.09,.11-.14,.2-.08,.08,.05,.22,.08,.15,.24-.07,.16-.14,.33-.21,.49-1.99,4.46-3.97,8.93-5.97,13.39-.08,.18-.09,.45-.32,.5Z"/><path class="cls-1" d="M93.5,8.11c.09,2.39,.18,4.78,.26,7.17,0,.16,0,.31,0,.47,0,.14,0,.27-.2,.27-.2,0-.2-.13-.2-.27-.03-.73-.06-1.46-.09-2.19-.15-4.25-.29-8.5-.44-12.76,0-.09-.02-.18,0-.27,.03-.17-.12-.46,.2-.46,.31,0,.19,.29,.19,.46,.1,2.52,.18,5.05,.27,7.57h0Z"/><path class="cls-1" d="M173.17,117.93c.06,.02,.17,.05,.27,.08,4.76,1.36,9.52,2.73,14.28,4.09,.11,.03,.21,.07,.32,.1,.12,.03,.21,.08,.18,.22-.03,.16-.14,.21-.3,.17-.09-.02-.17-.06-.25-.08-4.78-1.37-9.56-2.74-14.35-4.11-.11-.03-.22-.05-.32-.09-.11-.04-.19-.11-.15-.24,.04-.13,.14-.16,.31-.13Z"/><path class="cls-1" d="M162.98,27.21c-.11,.12-.19,.21-.28,.3-3.49,3.62-6.99,7.23-10.48,10.85-.12,.12-.23,.41-.46,.15-.19-.21,.07-.3,.17-.4,3.49-3.62,6.98-7.24,10.48-10.85,.11-.11,.18-.33,.41-.24,.07,.03,.11,.12,.18,.2Z"/><path class="cls-1" d="M27.47,28.96c.16,.15,.26,.23,.35,.32,3.63,3.51,7.26,7.02,10.89,10.53,.11,.11,.35,.2,.16,.42-.25,.27-.34-.06-.45-.16-3.63-3.48-7.24-6.98-10.86-10.47-.11-.1-.27-.18-.25-.36,.01-.08,.08-.15,.15-.27Z"/><path class="cls-1" d="M11.6,140.81c-.05-.06-.1-.12-.15-.19-.06-.09-.05-.16,.05-.21,.14-.07,.27-.15,.41-.23,4.34-2.31,8.68-4.61,13.02-6.92,.14-.07,.28-.14,.41-.21,.15-.08,.18,.06,.24,.14,.07,.09,.04,.16-.06,.21-.14,.07-.27,.15-.41,.22-4.34,2.31-8.68,4.61-13.02,6.92-.16,.08-.31,.16-.5,.26Z"/><path class="cls-1" d="M162.46,140.57c.09,.06,.2,.13,.31,.2,4.15,2.8,8.3,5.6,12.45,8.41,.13,.09,.46,.11,.27,.4-.19,.29-.35,.01-.48-.08-4.17-2.81-8.34-5.62-12.51-8.44-.13-.08-.38-.12-.25-.38,.03-.07,.07-.17,.22-.12Z"/><path class="cls-1" d="M85.4,16.41c.02,.16,.03,.34-.19,.34-.23,0-.19-.2-.21-.34-.31-2.21-.62-4.42-.93-6.63-.38-2.74-.77-5.47-1.15-8.21-.01-.09-.03-.17-.04-.26,0-.14-.09-.32,.16-.36,.25-.04,.22,.15,.24,.3,.12,.81,.24,1.62,.36,2.43,.58,4.14,1.16,8.28,1.74,12.42,.02,.11,.02,.22,.03,.33Z"/><path class="cls-1" d="M33.23,145.01c-.11,.09-.21,.17-.31,.25-3.96,3.1-7.92,6.2-11.89,9.28-.12,.09-.25,.41-.47,.14-.21-.27,.1-.34,.23-.44,3.96-3.1,7.92-6.2,11.89-9.29,.11-.09,.21-.26,.38-.17,.07,.03,.11,.13,.17,.23Z"/><path class="cls-1" d="M171.65,154.86c-.08,.1-.12,.2-.19,.23-.15,.08-.23-.08-.31-.15-1.21-.93-2.41-1.88-3.61-2.82-2.72-2.13-5.44-4.25-8.16-6.38-.09-.07-.18-.13-.26-.21-.09-.1-.32-.13-.17-.35,.17-.25,.31-.05,.43,.05,.93,.72,1.85,1.44,2.77,2.17,3.03,2.37,6.07,4.74,9.1,7.11,.13,.1,.26,.22,.4,.34Z"/><path class="cls-1" d="M153.58,151.32c.11,.1,.22,.18,.31,.27,3.63,3.51,7.27,7.01,10.9,10.53,.11,.1,.36,.2,.17,.41-.23,.26-.35-.03-.46-.15-3.62-3.49-7.24-6.98-10.85-10.48-.11-.11-.34-.18-.21-.42,.03-.06,.09-.1,.14-.16Z"/><path class="cls-1" d="M20.91,36.55c.11,.08,.22,.16,.33,.24,3.96,3.09,7.92,6.19,11.87,9.29,.13,.1,.45,.16,.27,.42-.22,.32-.38-.02-.52-.13-3.95-3.07-7.89-6.15-11.82-9.23-.12-.1-.36-.14-.29-.38,.02-.08,.11-.13,.17-.2Z"/><path class="cls-1" d="M159.43,46.91c-.17,.07-.19-.05-.24-.11-.07-.07-.08-.15,.02-.21,.11-.08,.21-.17,.31-.25,3.89-3.04,7.79-6.09,11.68-9.13,.1-.08,.22-.16,.32-.24,.1-.08,.18-.09,.27,.03,.08,.11,.07,.2-.03,.28-.09,.07-.17,.14-.26,.21-3.91,3.05-7.82,6.11-11.74,9.16-.12,.09-.25,.19-.33,.25Z"/><path class="cls-1" d="M40.68,153.28c-.09,.1-.17,.2-.26,.3-3.49,3.62-6.98,7.24-10.48,10.85-.11,.12-.23,.42-.46,.21-.28-.26,.08-.38,.2-.5,3.46-3.59,6.92-7.18,10.39-10.75,.12-.12,.19-.39,.46-.25,.05,.03,.09,.09,.15,.15Z"/><path class="cls-1" d="M118.45,19.16c-.36-.09-.2-.34-.15-.53,.34-1.21,.69-2.42,1.04-3.64,1.02-3.55,2.04-7.1,3.06-10.65,.04-.15,.09-.3,.13-.45,.03-.1,.1-.15,.19-.13,.12,.02,.21,.09,.19,.22-.03,.15-.08,.3-.12,.45-1.35,4.72-2.7,9.44-4.06,14.15-.06,.19,0,.46-.27,.56Z"/><path class="cls-1" d="M46.98,158.79c-.09,.13-.17,.23-.25,.33-3.09,3.96-6.18,7.92-9.28,11.87-.09,.12-.14,.44-.43,.24-.31-.22,.02-.34,.11-.45,3.08-3.97,6.18-7.92,9.28-11.88,.1-.12,.14-.35,.37-.3,.07,.01,.12,.11,.21,.19Z"/><path class="cls-1" d="M16.98,41.95c.14,.09,.25,.16,.36,.23,4.15,2.8,8.3,5.6,12.45,8.41,.15,.1,.52,.15,.27,.46-.2,.24-.35-.05-.48-.14-4.16-2.79-8.31-5.59-12.45-8.4-.12-.08-.37-.1-.3-.35,.02-.07,.1-.13,.16-.21Z"/><path class="cls-1" d="M171.32,123.2c.17,.07,.3,.11,.42,.16,4.65,1.69,9.3,3.38,13.95,5.08,.08,.03,.17,.05,.25,.09,.11,.05,.26,.06,.2,.27-.08,.25-.22,.14-.36,.09-1.12-.41-2.24-.81-3.36-1.22-3.59-1.3-7.18-2.61-10.78-3.91-.12-.05-.25-.09-.37-.14-.11-.04-.2-.1-.16-.24,.04-.13,.14-.15,.21-.17Z"/><path class="cls-1" d="M129.26,6.06c-.04,.13-.09,.28-.15,.42-1.68,4.63-3.37,9.26-5.05,13.89-.05,.12-.09,.25-.14,.37-.05,.11-.11,.2-.25,.14-.11-.05-.17-.13-.12-.26,.03-.08,.05-.17,.08-.25,1.71-4.71,3.43-9.43,5.15-14.13,.05-.14,0-.45,.34-.36,.09,.02,.17,.06,.14,.19Z"/><path class="cls-1" d="M155.11,171.31c-.07,.16-.16,.29-.34,.18-.11-.07-.18-.19-.26-.3-3.05-3.91-6.11-7.83-9.16-11.74-.04-.05-.09-.1-.12-.16-.09-.13-.29-.25-.03-.42,.23-.15,.26,.08,.34,.17,.68,.85,1.34,1.71,2.01,2.56,2.42,3.09,4.83,6.18,7.24,9.27,.11,.14,.21,.28,.32,.43Z"/><path class="cls-1" d="M51.49,162.07c-.08,.13-.15,.24-.22,.35-2.81,4.17-5.63,8.34-8.45,12.5-.09,.13-.12,.45-.41,.24-.24-.17,0-.32,.07-.44,2.82-4.19,5.64-8.38,8.47-12.56,.08-.12,.12-.32,.33-.26,.07,.02,.13,.1,.21,.16Z"/><path class="cls-1" d="M133.6,166.39c.15,.01,.16,.17,.22,.28,2.39,4.49,4.79,8.99,7.17,13.49,.06,.11,.23,.23,0,.38-.28,.18-.29-.09-.36-.21-2.4-4.49-4.79-8.99-7.18-13.48-.11-.2-.15-.36,.15-.45Z"/><path class="cls-1" d="M166.9,58.68c-.05-.06-.12-.12-.16-.19-.11-.2,.09-.22,.18-.27,.58-.32,1.17-.63,1.76-.94,3.85-2.05,7.7-4.09,11.55-6.14,.1-.05,.2-.09,.29-.15,.16-.11,.27-.1,.36,.09,.11,.21-.09,.22-.18,.27-.76,.41-1.52,.82-2.28,1.22-3.67,1.95-7.35,3.91-11.02,5.86-.16,.08-.32,.16-.5,.25Z"/><path class="cls-1" d="M63.32,185.86c-.47-.14-.19-.39-.13-.54,.69-1.94,1.4-3.86,2.1-5.79,.99-2.72,1.98-5.44,2.96-8.16,.04-.1,.07-.21,.11-.31,.06-.13,.09-.33,.31-.23,.21,.09,.1,.26,.06,.4-.02,.08-.07,.16-.1,.25-1.69,4.63-3.37,9.26-5.06,13.89-.07,.19-.09,.42-.27,.51Z"/><path class="cls-1" d="M59,25.1c-.06,.05-.11,.11-.18,.16-.09,.06-.16,.05-.21-.05-.07-.14-.15-.27-.22-.41-2.31-4.34-4.61-8.68-6.92-13.02-.06-.12-.11-.25-.18-.35-.11-.16-.02-.22,.1-.3,.15-.09,.19,.01,.24,.11,.06,.12,.13,.23,.2,.35,2.31,4.34,4.61,8.68,6.92,13.02,.08,.16,.16,.32,.26,.5Z"/><path class="cls-1" d="M74.08,172.86c-.02,.06-.05,.16-.08,.27-1.36,4.76-2.73,9.52-4.09,14.28-.02,.06-.04,.13-.07,.19-.05,.13,0,.36-.25,.31-.27-.05-.19-.25-.14-.42,.25-.85,.49-1.7,.74-2.55,1.13-3.93,2.25-7.87,3.37-11.8,.04-.15,.08-.3,.13-.45,.04-.12,.11-.19,.24-.15,.13,.04,.16,.14,.13,.31Z"/><path class="cls-1" d="M183.9,93.17c-2.35,.09-4.69,.18-7.04,.26-.18,0-.35,.01-.53,0-.14,0-.33,.06-.34-.19-.01-.26,.19-.2,.33-.21,.69-.03,1.37-.06,2.06-.08,4.3-.15,8.59-.3,12.89-.45,.11,0,.22,0,.33,0,.15,0,.33-.04,.34,.2,.01,.26-.19,.19-.33,.2-1,.04-1.99,.1-2.99,.11-1.57,.02-3.14,0-4.72,0v.15Z"/><path class="cls-1" d="M109.46,190.38c.01,.19,.06,.37-.18,.37-.3,0-.2-.24-.22-.39-.4-2.76-.79-5.52-1.18-8.28-.29-2.08-.59-4.16-.88-6.24-.02-.18-.05-.35-.06-.53,0-.14-.09-.34,.14-.37,.29-.04,.23,.2,.25,.36,.22,1.55,.44,3.11,.66,4.66,.48,3.39,.95,6.79,1.43,10.18,.01,.09,.03,.18,.03,.22Z"/><path class="cls-1" d="M150.05,16.65c-.09,.14-.16,.25-.23,.36-2.8,4.15-5.6,8.3-8.41,12.45-.1,.15-.15,.52-.46,.26-.24-.2,.06-.35,.15-.48,2.79-4.16,5.59-8.31,8.4-12.45,.08-.12,.1-.37,.35-.3,.07,.02,.13,.1,.21,.16Z"/><path class="cls-1" d="M6.31,62.71c.25,.09,.39,.14,.54,.19,4.61,1.68,9.22,3.35,13.83,5.03,.04,.02,.08,.03,.12,.06,.16,.1,.54,.02,.39,.37-.11,.27-.35,.06-.52,0-1.66-.6-3.32-1.2-4.98-1.81-2.99-1.09-5.98-2.18-8.96-3.27-.15-.05-.29-.11-.43-.16-.15-.05-.11-.16-.08-.27,.03-.1,.09-.14,.1-.14Z"/><path class="cls-1" d="M19.16,73.76c-1.79-.51-3.54-1.01-5.28-1.5-3.06-.88-6.12-1.76-9.18-2.64-.13-.04-.25-.09-.38-.11-.15-.03-.26-.08-.2-.26,.05-.17,.18-.16,.32-.13,.06,.02,.12,.05,.19,.06,4.8,1.38,9.61,2.76,14.41,4.13,.06,.02,.13,.03,.19,.05,.13,.04,.28,.06,.25,.24-.04,.22-.21,.18-.32,.16Z"/><path class="cls-1" d="M37.44,20.15c.17,.01,.22,.15,.3,.25,3.11,3.98,6.22,7.96,9.33,11.95,.09,.11,.32,.23,.11,.42-.28,.24-.33-.09-.42-.2-3.1-3.96-6.2-7.92-9.29-11.89-.09-.12-.33-.21-.17-.43,.03-.05,.11-.07,.16-.1Z"/><path class="cls-1" d="M155.46,20.58c-.08,.11-.15,.22-.23,.32-3.09,3.96-6.18,7.92-9.29,11.87-.1,.13-.18,.51-.47,.25-.23-.21,.06-.35,.16-.48,3.07-3.95,6.15-7.89,9.23-11.82,.1-.13,.14-.35,.38-.3,.08,.02,.14,.11,.21,.17Z"/><path class="cls-1" d="M175.71,85.07c-.16-.03-.4,.13-.44-.14-.05-.33,.25-.24,.42-.26,4.95-.7,9.89-1.4,14.84-2.09,.18-.02,.49-.22,.52,.15,.03,.32-.28,.21-.44,.23-4.64,.66-9.28,1.32-13.92,1.97-.33,.05-.66,.09-.98,.14Z"/><path class="cls-1" d="M99.23,183.71c.09,2.37,.17,4.74,.26,7.11,0,.16,.01,.31,0,.47,0,.15,.03,.33-.2,.34-.25,0-.19-.2-.2-.33-.04-.82-.07-1.64-.1-2.46-.15-4.16-.29-8.33-.43-12.49,0-.11,0-.22,0-.33,0-.14-.05-.33,.19-.34,.26,0,.2,.19,.2,.33,.04,.75,.08,1.51,.09,2.26,.01,1.82,0,3.63,0,5.45h.17Z"/><path class="cls-1" d="M8.37,98.91c-2.39,.09-4.78,.17-7.17,.26-.15,0-.31,0-.47,0-.15,0-.33,.03-.33-.21,0-.25,.21-.18,.34-.19,.84-.04,1.68-.07,2.52-.1,4.07-.14,8.15-.28,12.22-.43,.16,0,.31-.02,.46,0,.15,.01,.4-.1,.39,.2,0,.29-.26,.19-.4,.19-2.52,.1-5.05,.19-7.57,.28h0Z"/><path class="cls-1" d="M1.57,109.15c-.13,0-.27,.05-.3-.15-.04-.3,.19-.24,.35-.26,2.1-.3,4.2-.61,6.3-.9,2.78-.39,5.56-.79,8.34-1.16,.26-.04,.73-.28,.78,.12,.05,.38-.45,.22-.69,.25-4.86,.7-9.72,1.39-14.58,2.08-.07,0-.13,.02-.2,.02Z"/><path class="cls-1" d="M99.64,8.05c-.09,2.5-.18,5-.28,7.5,0,.17,.12,.47-.19,.46-.36,0-.2-.33-.2-.51,.14-4.36,.3-8.72,.45-13.08,.02-.69,.04-1.37,.07-2.06,0-.13-.01-.28,.19-.28,.18,0,.22,.11,.21,.26,0,.16,0,.31,0,.47-.09,2.41-.17,4.83-.26,7.24h0Z"/><path class="cls-1" d="M17.29,81.94c-3.08-.54-6.06-1.07-9.05-1.6-1.9-.33-3.79-.67-5.69-1-.13-.02-.26-.04-.39-.08-.14-.05-.41,.01-.32-.29,.07-.22,.24-.13,.38-.1,1.24,.22,2.48,.43,3.73,.65,3.66,.65,7.32,1.3,10.98,1.94,.11,.02,.22,.02,.33,.05,.13,.05,.34,.01,.29,.26-.05,.24-.21,.17-.27,.15Z"/><path class="cls-1" d="M103.2,1.06c-.35,4.91-.69,9.81-1.04,14.72-.01,.15,.09,.42-.18,.41-.37,0-.22-.33-.21-.51,.18-2.74,.37-5.48,.57-8.22,.15-2.19,.31-4.38,.47-6.56,.01-.15,0-.31,.03-.46,.02-.14,.12-.16,.24-.15,.11,.01,.14,.09,.14,.18,0,.2,0,.4,0,.6h-.03Z"/><path class="cls-1" d="M189.43,116.08c-2.23-.48-4.55-.97-6.86-1.46-2.66-.57-5.32-1.13-7.98-1.71-.13-.03-.41,.07-.37-.22,.04-.32,.28-.2,.47-.16,4.93,1.05,9.86,2.1,14.79,3.15,.16,.03,.38,0,.36,.28-.02,.27-.2,.15-.42,.13Z"/><path class="cls-1" d="M75.91,189.2c.45-2.12,.9-4.24,1.35-6.36,.61-2.85,1.22-5.71,1.83-8.56,.03-.13-.07-.4,.22-.37,.31,.04,.21,.28,.17,.46-1.05,4.93-2.1,9.86-3.15,14.79-.03,.16,0,.39-.27,.37-.26-.01-.17-.19-.15-.33Z"/><path class="cls-1" d="M107.33,16.39c.27-1.92,.54-3.84,.81-5.77,.43-3.07,.87-6.13,1.31-9.2,.02-.16-.09-.48,.23-.44,.35,.05,.17,.35,.15,.54-.69,4.95-1.39,9.9-2.09,14.85-.02,.18,.04,.45-.28,.41-.25-.03-.1-.24-.13-.39Z"/><path class="cls-1" d="M79.8,1.43c.24,.08,.19,.35,.22,.53,.27,1.46,.52,2.92,.77,4.38,.6,3.42,1.21,6.85,1.8,10.27,.03,.17,.28,.47-.08,.54-.35,.07-.27-.28-.3-.47-.87-4.91-1.73-9.81-2.58-14.72-.03-.18-.25-.44,.17-.54Z"/><path class="cls-1" d="M113.14,1.87c-.53,3.03-1.07,6.06-1.6,9.09-.33,1.9-.67,3.79-1,5.69-.02,.09-.01,.18-.04,.26-.06,.14,0,.4-.3,.31-.25-.07-.11-.25-.09-.38,.26-1.48,.52-2.96,.78-4.45,.6-3.4,1.19-6.8,1.79-10.2,.02-.13,.04-.26,.08-.39,.04-.13-.02-.35,.25-.3,.23,.05,.17,.21,.14,.36Z"/><path class="cls-1" d="M112.84,17.41c.48-2.27,.96-4.54,1.44-6.81,.57-2.66,1.14-5.32,1.71-7.98,.04-.19-.04-.54,.32-.45,.33,.09,.1,.38,.06,.55-1.02,4.85-2.05,9.69-3.08,14.54-.02,.09-.04,.17-.07,.26-.04,.12,.05,.35-.24,.27-.22-.06-.18-.21-.14-.37Z"/><path class="cls-1" d="M22.09,125.72c-.1,.14-.3,.18-.47,.25-3.81,1.54-7.63,3.08-11.44,4.63-.8,.32-1.6,.65-2.4,.96-.15,.06-.36,.31-.49,.05-.17-.33,.18-.34,.35-.41,2.81-1.14,5.62-2.27,8.43-3.41,1.85-.75,3.69-1.5,5.54-2.24,.18-.07,.43-.28,.49,.17Z"/><path class="cls-1" d="M170.32,125.81c.12,.05,.25,.09,.37,.14,4.59,1.86,9.18,3.71,13.77,5.57,.12,.05,.25,.1,.37,.15,.13,.06,.12,.17,.09,.28-.05,.16-.17,.12-.27,.08-.41-.16-.82-.33-1.23-.5-4.28-1.73-8.57-3.46-12.85-5.19-.12-.05-.24-.11-.37-.15-.17-.05-.11-.15-.07-.25,.03-.08,.07-.17,.19-.13Z"/><path class="cls-1" d="M79.2,189.76c.39-2.2,.79-4.49,1.19-6.78,.46-2.64,.93-5.27,1.4-7.91,.02-.11,.02-.22,.06-.33,.05-.13,.01-.34,.27-.28,.24,.06,.14,.22,.12,.36-.21,1.2-.41,2.4-.62,3.6-.65,3.7-1.3,7.41-1.96,11.11-.02,.13-.05,.26-.08,.39-.03,.12,0,.28-.21,.26-.23-.03-.22-.18-.15-.43Z"/><path class="cls-1" d="M109.86,174.51c.28,.02,.23,.27,.26,.44,.4,2.24,.8,4.49,1.19,6.74,.47,2.66,.93,5.32,1.38,7.98,.03,.18,.29,.47-.07,.54-.39,.08-.28-.33-.31-.51-.64-3.57-1.27-7.15-1.9-10.73-.24-1.35-.47-2.7-.7-4.06-.02-.15-.19-.36,.14-.41Z"/><path class="cls-1" d="M66.57,21.54c.03,.12-.05,.15-.13,.19-.12,.05-.2,.04-.25-.09-.05-.12-.1-.24-.15-.37-1.85-4.57-3.7-9.14-5.55-13.72-.04-.1-.1-.2-.12-.31-.02-.1-.18-.24,.06-.31,.16-.05,.25,0,.31,.15,.04,.1,.08,.2,.13,.31,1.85,4.59,3.71,9.19,5.56,13.78,.05,.12,.1,.25,.14,.37Z"/><path class="cls-1" d="M126.41,21.91c-.4-.08-.26-.27-.19-.46,.57-1.41,1.14-2.83,1.72-4.24,1.29-3.2,2.58-6.4,3.87-9.59,.03-.08,.06-.17,.1-.25,.07-.15,.08-.4,.34-.29,.27,.11,.08,.29,.03,.43-.62,1.56-1.26,3.12-1.89,4.67-1.25,3.1-2.5,6.19-3.76,9.28-.06,.15-.04,.39-.23,.44Z"/><path class="cls-1" d="M85,175.32c-.31,2.23-.63,4.46-.94,6.69-.39,2.76-.78,5.52-1.18,8.28-.02,.16,.1,.48-.25,.41-.31-.06-.16-.33-.13-.49,.69-4.97,1.39-9.94,2.1-14.92,.02-.16-.03-.4,.24-.39,.3,.02,.14,.26,.17,.41Z"/><path class="cls-1" d="M89.13,190.63c.35-4.91,.69-9.81,1.04-14.72,.01-.15-.1-.42,.18-.41,.37,.01,.22,.33,.21,.51-.18,2.74-.37,5.48-.57,8.22-.15,2.19-.31,4.38-.47,6.56-.01,.15-.01,.31-.03,.46-.01,.1-.08,.15-.18,.15-.13,0-.21-.05-.21-.19,0-.2,0-.4,0-.6h.03Z"/><path class="cls-1" d="M183.89,99.31c-2.48-.09-4.96-.18-7.44-.28-.16,0-.46,.13-.47-.18,0-.38,.33-.21,.5-.21,4.36,.14,8.72,.3,13.08,.45,.64,.02,1.28,.04,1.93,.07,.15,0,.41-.1,.41,.18,0,.33-.28,.22-.45,.21-1.86-.05-3.72-.12-5.58-.18-.66-.02-1.33-.06-1.99-.09v.02Z"/><path class="cls-1" d="M93.11,183.59c-.09,2.52-.18,5.05-.27,7.57,0,.16,.13,.47-.22,.43-.31-.04-.17-.32-.17-.49,.1-3.14,.21-6.29,.32-9.43,.06-1.84,.13-3.67,.21-5.51,0-.17-.16-.52,.22-.49,.31,.02,.17,.32,.16,.48-.08,2.48-.17,4.96-.26,7.44h0Z"/><path class="cls-1" d="M16.7,84.68c-2.22-.31-4.45-.63-6.69-.94-2.76-.39-5.52-.78-8.28-1.18-.16-.02-.47,.1-.42-.24,.04-.31,.32-.17,.49-.14,4.97,.69,9.94,1.4,14.91,2.1,.16,.02,.4-.03,.4,.23,0,.3-.24,.16-.41,.17Z"/><path class="cls-1" d="M42.9,16.22c.09,.11,.18,.2,.25,.31,2.82,4.19,5.65,8.37,8.47,12.56,.1,.15,.32,.33,0,.47-.26,.12-.26-.16-.34-.27-2.82-4.16-5.63-8.33-8.44-12.5-.08-.12-.3-.25-.13-.45,.04-.05,.1-.07,.19-.12Z"/><path class="cls-1" d="M49.52,30.97c-.05,.06-.09,.12-.14,.16-.12,.09-.2,.03-.27-.07-.13-.18-.26-.36-.39-.54-2.84-3.91-5.68-7.81-8.51-11.72-.04-.05-.09-.1-.11-.17-.04-.14-.34-.23-.1-.42,.27-.22,.34,.08,.44,.22,.48,.64,.95,1.28,1.41,1.93,2.46,3.39,4.92,6.78,7.38,10.16,.1,.14,.2,.29,.3,.44Z"/><path class="cls-1" d="M175.08,82.33c-.12,.03-.22,.03-.25-.12-.06-.28,.17-.27,.32-.3,1.02-.19,2.05-.37,3.07-.55,3.95-.69,7.89-1.38,11.84-2.07,.17-.03,.42-.22,.47,.12,.05,.33-.28,.24-.42,.26-4.95,.88-9.9,1.75-14.85,2.62-.07,.01-.13,.03-.2,.04Z"/><path class="cls-1" d="M170.49,66.24c-.14,.05-.19-.04-.23-.16-.04-.1-.03-.16,.08-.2,.12-.05,.24-.1,.37-.15,4.59-1.86,9.18-3.71,13.78-5.57,.1-.04,.2-.09,.31-.12,.09-.02,.2-.13,.27,.04,.06,.14,.04,.27-.11,.33-.29,.12-.58,.23-.86,.34-4.39,1.77-8.78,3.54-13.16,5.32-.14,.06-.29,.12-.43,.18Z"/><path class="cls-1" d="M162.68,164.67c-.07,.24-.14,.39-.34,.27-.13-.08-.22-.21-.33-.32-3.43-3.55-6.86-7.1-10.29-10.66-.09-.1-.18-.19-.27-.29-.07-.08-.07-.15,0-.22,.09-.09,.17-.14,.28-.04,.1,.09,.19,.19,.28,.28,3.44,3.57,6.89,7.14,10.33,10.71,.11,.11,.24,.2,.33,.27Z"/><path class="cls-1" d="M16.79,149.38c-.16-.09-.31-.18-.14-.36,.12-.12,.28-.21,.43-.31,4.06-2.74,8.12-5.47,12.17-8.21,.11-.07,.22-.15,.33-.22,.16-.11,.23-.01,.31,.1,.11,.15-.03,.18-.11,.24-.09,.07-.18,.13-.27,.19-4.09,2.76-8.19,5.52-12.28,8.28-.15,.1-.3,.19-.44,.28Z"/><path class="cls-1" d="M31.51,142.73c-.04,.22-.26,.28-.41,.39-3.69,2.69-7.38,5.37-11.07,8.05-.36,.26-.71,.53-1.08,.77-.11,.07-.22,.35-.41,.07-.17-.25,.08-.31,.2-.4,1.09-.8,2.18-1.59,3.28-2.39,2.97-2.16,5.95-4.33,8.93-6.48,.16-.12,.35-.43,.57-.02Z"/><path class="cls-1" d="M29.91,26.68c.09,.09,.19,.17,.28,.26,3.51,3.63,7.01,7.26,10.52,10.9,.1,.1,.36,.21,.15,.41-.29,.26-.38-.09-.5-.22-3.16-3.26-6.31-6.52-9.47-9.79-.35-.37-.71-.73-1.06-1.1-.09-.09-.23-.17-.11-.32,.04-.05,.1-.08,.19-.14Z"/><path class="cls-1" d="M165.42,29.67c-.14,.08-.28,.12-.37,.21-3.64,3.5-7.27,7.01-10.9,10.51-.1,.1-.2,.36-.41,.12-.2-.23,.05-.31,.16-.41,3.64-3.53,7.29-7.05,10.94-10.57,.09-.08,.15-.25,.32-.16,.07,.04,.11,.12,.27,.3Z"/><path class="cls-1" d="M191.02,102.88c-4.93-.35-9.86-.69-14.79-1.05-.16-.01-.47,.12-.42-.23,.04-.3,.32-.17,.49-.16,2.08,.13,4.16,.28,6.23,.43,2.85,.2,5.7,.41,8.55,.61,.11,0,.22,.01,.33,.01,.16,0,.32,.01,.3,.24-.02,.2-.17,.15-.3,.16-.13,0-.27,0-.4,0v-.02Z"/><path class="cls-1" d="M38.69,151.31c-.09,.1-.17,.2-.26,.29-3.63,3.51-7.26,7.01-10.9,10.52-.11,.1-.22,.37-.41,.14-.25-.28,.1-.38,.23-.51,3.34-3.24,6.69-6.46,10.03-9.69,.3-.29,.6-.59,.91-.88,.08-.07,.16-.17,.27-.05,.04,.05,.08,.1,.13,.17Z"/><path class="cls-1" d="M175.56,107c1.96,.28,3.88,.55,5.81,.82,3.07,.43,6.13,.86,9.2,1.31,.16,.02,.48-.1,.45,.22-.03,.36-.34,.19-.53,.16-4.95-.69-9.9-1.39-14.85-2.09-.17-.02-.45,.05-.42-.27,.02-.27,.24-.1,.34-.15Z"/><path class="cls-1" d="M1.95,112.48c-.06,.02-.15-.03-.17-.21-.04-.27,.19-.21,.31-.23,1.57-.29,3.14-.57,4.71-.85,3.34-.59,6.67-1.18,10.01-1.76,.11-.02,.22-.04,.33-.04,.13,0,.31-.16,.37,.1,.06,.28-.18,.27-.33,.3-1.02,.19-2.05,.37-3.07,.55-3.93,.69-7.85,1.37-11.78,2.06-.09,.02-.17,.04-.36,.09Z"/><path class="cls-1" d="M152.43,173.31c.02,.13-.08,.15-.15,.2-.17,.11-.23-.05-.3-.15-.5-.68-.99-1.36-1.49-2.04-2.46-3.39-4.92-6.78-7.38-10.16-.07-.09-.13-.18-.2-.27-.1-.13-.1-.23,.04-.33,.12-.09,.2-.02,.27,.07,.07,.09,.13,.18,.19,.27,2.92,4.01,5.83,8.03,8.75,12.04,.09,.13,.18,.25,.26,.37Z"/><path class="cls-1" d="M161.05,49.19c-.06-.05-.13-.1-.18-.16-.07-.08-.04-.16,.04-.22,.12-.09,.25-.18,.38-.27,3.98-2.89,7.95-5.78,11.93-8.68,.09-.07,.18-.13,.27-.19,.11-.08,.2-.18,.31,0,.1,.16,.04,.24-.09,.32-.09,.06-.18,.13-.27,.2-4,2.9-7.99,5.81-11.99,8.71-.12,.09-.25,.18-.41,.29Z"/><path class="cls-1" d="M175.78,42.58c-.11,.09-.2,.17-.31,.25-4.18,2.82-8.37,5.65-12.56,8.47-.13,.09-.26,.29-.44,.06-.2-.26,.08-.29,.19-.36,4.18-2.83,8.36-5.66,12.55-8.48,.12-.08,.25-.3,.45-.13,.04,.04,.06,.11,.11,.19Z"/><path class="cls-1" d="M190.24,112.84c-3.39-.6-6.65-1.17-9.92-1.74-1.66-.29-3.31-.59-4.97-.88-.11-.02-.22-.03-.33-.06-.12-.04-.28-.03-.25-.23,.03-.23,.18-.19,.34-.16,1.46,.26,2.92,.51,4.38,.76,3.44,.61,6.88,1.21,10.33,1.82,.13,.02,.26,.05,.39,.08,.13,.04,.34,0,.28,.25-.06,.23-.23,.15-.25,.15Z"/><path class="cls-1" d="M149.69,175.23c-.09,.16-.18,.31-.35,.14-.12-.12-.21-.28-.31-.43-2.74-4.06-5.47-8.12-8.21-12.18-.07-.11-.15-.22-.22-.33-.11-.16-.01-.23,.1-.31,.15-.11,.18,.03,.24,.11,.07,.09,.13,.18,.19,.27,2.76,4.09,5.52,8.19,8.28,12.28,.1,.15,.19,.3,.28,.44Z"/><path class="cls-1" d="M2.81,75.59c1.91,.41,3.84,.81,5.76,1.22,3.05,.65,6.1,1.3,9.14,1.96,.13,.03,.48-.13,.38,.26-.08,.31-.32,.15-.49,.11-4.91-1.04-9.82-2.09-14.73-3.13-.18-.04-.44,0-.39-.32,.04-.22,.19-.1,.32-.11Z"/><path class="cls-1" d="M60.19,184.64c-.34-.05-.23-.24-.17-.4,.29-.72,.58-1.43,.87-2.15,1.6-3.96,3.19-7.91,4.8-11.86,.06-.15,0-.52,.35-.4,.39,.13,.07,.39,0,.53-1.85,4.62-3.71,9.23-5.58,13.84-.07,.17-.07,.41-.28,.44Z"/><path class="cls-1" d="M22.26,65.59c-.08,.19-.09,.35-.29,.28-.12-.05-.25-.1-.37-.15-4.57-1.85-9.14-3.7-13.71-5.55-.06-.02-.12-.05-.18-.08-.14-.07-.39-.07-.3-.34,.11-.29,.29-.08,.43-.03,.8,.31,1.6,.64,2.4,.96,3.85,1.56,7.71,3.11,11.56,4.67,.16,.07,.32,.15,.46,.23Z"/><path class="cls-1" d="M1.31,88.81c4.93,.35,9.86,.69,14.79,1.05,.16,.01,.47-.12,.42,.23-.04,.3-.32,.17-.49,.16-2.08-.13-4.16-.28-6.23-.43-2.85-.2-5.7-.41-8.55-.61-.11,0-.22,0-.33-.01-.16,0-.32,0-.3-.24,.02-.2,.17-.16,.3-.16,.13,0,.27,0,.4,0v.02Z"/><path class="cls-1" d="M8.44,92.78c-2.52-.09-5.05-.18-7.57-.27-.16,0-.46,.12-.43-.21,.03-.31,.31-.18,.48-.17,3.14,.1,6.29,.21,9.43,.32,1.77,.06,3.54,.12,5.31,.21,.23,.01,.7-.22,.67,.22-.02,.39-.48,.17-.72,.16-2.39-.07-4.78-.16-7.17-.25h0Z"/><path class="cls-1" d="M131.99,184.54c.05,.19-.05,.2-.13,.22-.09,.03-.18,.02-.23-.07-.07-.14-.13-.28-.19-.42-1.85-4.57-3.69-9.15-5.54-13.72-.04-.1-.07-.21-.12-.31-.08-.15-.04-.23,.13-.29,.16-.06,.19,.04,.23,.14,.05,.1,.08,.2,.13,.31,1.86,4.59,3.71,9.19,5.57,13.78,.06,.14,.11,.29,.15,.37Z"/><path class="cls-1" d="M169.4,63.67c-.16,.04-.17-.06-.21-.13-.05-.09-.03-.17,.06-.22,.12-.06,.24-.12,.36-.17,4.52-2.01,9.05-4.02,13.57-6.03,.12-.05,.25-.1,.36-.16,.15-.08,.18,.04,.24,.13,.06,.09,.03,.16-.06,.21-.12,.06-.24,.12-.36,.17-4.54,2.02-9.09,4.04-13.63,6.06-.12,.05-.24,.11-.33,.15Z"/><path class="cls-1" d="M69.16,20.49c0,.13-.03,.21-.12,.24-.13,.05-.21-.01-.26-.13-.05-.12-.09-.25-.14-.37-1.69-4.63-3.37-9.26-5.06-13.89-.04-.1-.08-.21-.11-.31-.05-.13-.07-.24,.11-.31,.18-.07,.23,.02,.26,.16,.02,.08,.07,.16,.1,.25,1.69,4.65,3.38,9.3,5.07,13.95,.05,.15,.1,.29,.14,.4Z"/><path class="cls-1" d="M104.56,15.97c.37-3.58,.74-7.1,1.11-10.62,.15-1.41,.3-2.82,.46-4.22,.02-.19-.15-.59,.26-.53,.31,.04,.15,.37,.13,.56-.26,2.6-.54,5.19-.81,7.79-.25,2.33-.5,4.66-.76,7-.02,.17,.17,.52-.21,.5-.38-.01-.1-.35-.19-.47Z"/><path class="cls-1" d="M135.13,183.38s-.11,.03-.17,.07c-.08,.06-.16,.07-.22-.03-.08-.16-.16-.31-.23-.47-2-4.48-3.99-8.97-5.99-13.45-.05-.12-.1-.25-.16-.36-.06-.12-.04-.2,.09-.26,.13-.06,.21-.02,.27,.08,.06,.1,.09,.2,.14,.3,2.03,4.56,4.06,9.13,6.09,13.69,.04,.1,.09,.2,.18,.42Z"/><path class="cls-1" d="M70.04,3.65c.26,.11,.22,.37,.27,.56,1.04,3.61,2.07,7.23,3.11,10.84,.33,1.17,.68,2.34,1.01,3.51,.04,.15,.2,.37-.06,.46-.32,.11-.28-.2-.33-.36-1.39-4.82-2.77-9.65-4.16-14.47-.06-.2-.19-.43,.15-.53Z"/><path class="cls-1" d="M71.8,19.55c.04,.16,.02,.25-.12,.29-.13,.03-.21,0-.25-.13-.03-.11-.07-.21-.11-.31-1.53-4.71-3.06-9.43-4.58-14.14-.03-.08-.07-.16-.09-.25-.02-.12-.13-.26,.07-.33,.21-.07,.27,.05,.32,.22,.23,.74,.48,1.47,.72,2.21,1.31,4.02,2.61,8.04,3.92,12.05,.05,.15,.09,.3,.13,.41Z"/><path class="cls-1" d="M8.78,134.76c-.16,.07-.18-.07-.23-.15-.06-.1,0-.16,.08-.21,.1-.05,.2-.09,.3-.14,4.56-2.03,9.13-4.06,13.69-6.1,.08-.04,.16-.08,.24-.11,.1-.04,.2-.09,.27,.05,.08,.16,.03,.25-.11,.32-.1,.05-.2,.09-.3,.14-4.52,2.01-9.05,4.02-13.57,6.03-.12,.05-.24,.11-.36,.17Z"/><path class="cls-1" d="M57.49,8.18c.21,.08,.22,.31,.3,.47,1.79,4.02,3.58,8.04,5.37,12.06,.24,.55,.49,1.09,.72,1.64,.06,.13,.28,.3,.02,.44-.31,.16-.31-.15-.38-.3-.9-2-1.78-4-2.67-6-1.15-2.58-2.3-5.17-3.45-7.76-.08-.19-.34-.43,.1-.55Z"/><path class="cls-1" d="M166.81,133.42c.1,.05,.21,.11,.33,.17,4.37,2.33,8.75,4.65,13.12,6.98,.12,.06,.24,.12,.35,.19,.1,.08,.1,.18,.04,.29-.06,.11-.15,.07-.23,.04-.1-.04-.2-.09-.3-.15-4.39-2.34-8.78-4.68-13.17-7.01-.1-.05-.19-.11-.29-.16-.14-.06-.13-.16-.08-.27,.04-.09,.11-.13,.24-.09Z"/><path class="cls-1" d="M34.98,147.17c-.11,.1-.2,.19-.3,.28-3.87,3.25-7.74,6.5-11.61,9.74-.1,.08-.2,.35-.41,.12-.25-.27,.06-.34,.18-.44,3.85-3.24,7.7-6.47,11.56-9.7,.12-.1,.21-.3,.42-.22,.07,.03,.11,.13,.17,.22Z"/><path class="cls-1" d="M134,25.47c-.19-.04-.33-.08-.27-.26,.05-.14,.14-.28,.21-.41,2.3-4.33,4.61-8.67,6.91-13,.06-.12,.12-.24,.19-.35,.08-.14,.19-.17,.33-.08,.13,.09,.05,.2,.01,.29-.05,.12-.12,.23-.19,.35-2.29,4.32-4.58,8.63-6.88,12.95-.1,.19-.22,.36-.32,.52Z"/><path class="cls-1" d="M187.35,66.42c.02,.34-.27,.29-.42,.34-1.91,.63-3.83,1.25-5.74,1.87-2.82,.91-5.64,1.83-8.46,2.73-.17,.06-.44,.33-.55-.02-.11-.35,.27-.29,.44-.34,4.73-1.55,9.46-3.08,14.2-4.61,.18-.06,.39-.26,.54,.03Z"/><path class="cls-1" d="M143.37,31.42c-.06-.04-.15-.07-.19-.14-.1-.16,.07-.23,.14-.33,.71-.99,1.43-1.97,2.14-2.96,2.21-3.05,4.42-6.09,6.64-9.14,.09-.13,.18-.26,.28-.37,.08-.09,.17-.14,.28-.04,.1,.08,.13,.17,.04,.28-.13,.18-.26,.36-.39,.54-2.85,3.92-5.7,7.85-8.55,11.77-.1,.14-.17,.32-.38,.39Z"/><path class="cls-1" d="M45.14,34.42c-.09,.07-.15,.15-.22,.18-.17,.05-.22-.11-.3-.2-.69-.81-1.37-1.63-2.05-2.44-2.53-3.02-5.07-6.04-7.6-9.06-.09-.1-.17-.2-.26-.31-.08-.09-.11-.17,.01-.27,.13-.1,.22-.13,.32,.02,.06,.09,.14,.17,.21,.26,3.16,3.77,6.32,7.53,9.49,11.3,.14,.17,.27,.34,.41,.52Z"/><path class="cls-1" d="M147.81,34.88c-.16-.07-.36-.09-.22-.31,.08-.13,.19-.24,.29-.36,3.18-3.79,6.35-7.57,9.54-11.35,.11-.13,.19-.51,.48-.28,.3,.24-.06,.37-.17,.51-1.1,1.33-2.21,2.66-3.32,3.98-2.06,2.46-4.13,4.92-6.2,7.38-.13,.15-.26,.29-.39,.43Z"/><path class="cls-1" d="M169.51,157.49c-.05,.06-.09,.15-.16,.18-.16,.07-.23-.08-.32-.16-1.06-.88-2.11-1.76-3.16-2.65-2.78-2.34-5.57-4.67-8.35-7.01-.07-.06-.14-.11-.2-.17-.11-.1-.26-.19-.1-.37,.19-.21,.28,0,.37,.09,.91,.75,1.8,1.5,2.7,2.26,2.95,2.48,5.91,4.96,8.86,7.44,.13,.11,.31,.17,.36,.39Z"/><path class="cls-1" d="M160.49,24.98c-.06,.07-.14,.17-.23,.27-3.36,3.74-6.72,7.47-10.09,11.2-.1,.11-.18,.36-.4,.21-.28-.2-.01-.35,.1-.47,3.37-3.75,6.75-7.5,10.14-11.25,.09-.1,.14-.31,.35-.2,.08,.04,.15,.1,.13,.25Z"/><path class="cls-1" d="M25.24,31.45c.14,.12,.25,.22,.36,.32,3.72,3.35,7.44,6.69,11.15,10.05,.11,.1,.44,.19,.2,.44-.23,.24-.35-.05-.48-.16-3.74-3.36-7.47-6.72-11.2-10.09-.1-.09-.31-.14-.23-.34,.03-.07,.11-.12,.19-.21Z"/><path class="cls-1" d="M175.98,104.23c2.72,.28,5.41,.56,8.09,.84,2.31,.24,4.62,.49,6.93,.74,.17,.02,.47-.1,.43,.24-.04,.32-.33,.16-.49,.15-3.52-.36-7.04-.73-10.56-1.11-1.47-.16-2.95-.31-4.42-.48-.14-.02-.4,.09-.39-.19,0-.32,.28-.19,.42-.2Z"/><path class="cls-1" d="M35.23,44.22c-.07,.09-.11,.18-.18,.22-.16,.08-.23-.08-.32-.15-.89-.74-1.77-1.48-2.65-2.22-2.97-2.49-5.94-4.98-8.9-7.49-.13-.11-.51-.19-.26-.48,.24-.28,.37,.07,.51,.18,3.79,3.17,7.58,6.34,11.36,9.52,.15,.13,.29,.26,.45,.41Z"/><path class="cls-1" d="M157.61,44.79c-.12-.09-.29-.15-.18-.33,.06-.11,.19-.18,.29-.27,3.82-3.2,7.63-6.41,11.46-9.61,.13-.11,.25-.46,.5-.18,.26,.29-.12,.36-.25,.47-3.79,3.2-7.6,6.39-11.4,9.58-.14,.11-.28,.22-.43,.34Z"/><path class="cls-1" d="M31.74,48.64c-.07,.1-.08,.29-.27,.19-.12-.06-.22-.15-.33-.23-4.01-2.92-8.02-5.83-12.04-8.75-.04-.03-.08-.04-.11-.08-.11-.13-.44-.16-.21-.44,.19-.22,.32,.03,.44,.11,1.65,1.19,3.3,2.39,4.95,3.59,2.38,1.73,4.76,3.46,7.14,5.2,.15,.11,.36,.18,.42,.4Z"/><path class="cls-1" d="M173.65,152.18c-.09,.14-.13,.31-.3,.23-.12-.05-.22-.15-.33-.22-4.01-2.92-8.03-5.83-12.04-8.75-.05-.04-.11-.07-.16-.12-.13-.11-.33-.19-.14-.41,.18-.21,.28,.02,.37,.09,.99,.71,1.97,1.43,2.96,2.14,3.06,2.23,6.13,4.45,9.19,6.68,.16,.11,.31,.24,.46,.36Z"/><path class="cls-1" d="M11.88,50.58c.1,.05,.24,.11,.37,.19,4.37,2.33,8.75,4.65,13.11,6.99,.16,.09,.53,.09,.38,.41-.17,.34-.39,.02-.54-.06-4.4-2.32-8.79-4.66-13.18-7-.15-.08-.42-.09-.37-.39,.02-.09,.07-.16,.23-.13Z"/><path class="cls-1" d="M188.35,69.69c-.07,.29-.35,.23-.54,.28-2.99,.87-5.99,1.72-8.99,2.58-1.76,.5-3.53,1.01-5.29,1.51-.18,.05-.45,.28-.55-.07-.08-.31,.25-.25,.41-.29,4.8-1.39,9.6-2.76,14.41-4.14,.2-.06,.43-.22,.55,.13Z"/><path class="cls-1" d="M155.46,149.34c.22,.02,.32,.18,.45,.3,3.27,2.95,6.55,5.9,9.82,8.85,.39,.36,.8,.7,1.18,1.07,.14,.14,.55,.26,.32,.52-.29,.33-.45-.13-.6-.26-1.46-1.29-2.91-2.59-4.35-3.9-2.24-2.01-4.48-4.03-6.71-6.04-.11-.1-.28-.17-.26-.35,0-.07,.11-.13,.16-.18Z"/><path class="cls-1" d="M19.38,117.72c-.05,.28-.31,.23-.48,.27-2.87,.83-5.74,1.65-8.61,2.47-1.91,.55-3.83,1.1-5.74,1.64-.19,.05-.47,.25-.54-.09-.07-.31,.27-.23,.43-.28,4.8-1.39,9.6-2.77,14.41-4.14,.18-.05,.43-.24,.53,.12Z"/><path class="cls-1" d="M5.22,125.4c-.13,.03-.21-.02-.24-.15-.02-.1,0-.18,.09-.22,.14-.06,.29-.1,.44-.15,4.65-1.51,9.3-3.02,13.95-4.53,.02,0,.04-.02,.06-.02,.21,0,.49-.35,.62,0,.14,.38-.3,.31-.48,.37-1.32,.45-2.65,.87-3.97,1.3-3.34,1.09-6.69,2.17-10.03,3.26l-.44,.14Z"/><path class="cls-1" d="M21.1,123.05c-.1,.27-.36,.25-.55,.32-3.42,1.25-6.85,2.5-10.27,3.74-1.25,.45-2.49,.91-3.74,1.35-.15,.05-.36,.29-.47-.06-.1-.31,.2-.25,.31-.29,4.73-1.73,9.46-3.45,14.2-5.17,.2-.07,.41-.22,.53,.11Z"/><path class="cls-1" d="M128.9,185.79s-.03,.12-.16,.17c-.31,.12-.26-.17-.3-.29-.68-1.82-1.34-3.65-2-5.48-1.04-2.84-2.07-5.69-3.11-8.53-.03-.08-.06-.17-.09-.25-.05-.16-.19-.36,.05-.45,.27-.1,.26,.16,.31,.31,.59,1.62,1.19,3.24,1.78,4.86,1.12,3.07,2.24,6.14,3.36,9.22,.05,.12,.09,.25,.16,.45Z"/><path class="cls-1" d="M44.82,157.02c-.1,.12-.18,.23-.26,.33-3.23,3.85-6.47,7.71-9.7,11.56-.11,.13-.19,.43-.44,.2-.26-.24,.07-.35,.16-.46,3.19-3.83,6.4-7.65,9.61-11.46,.12-.14,.18-.38,.44-.33,.07,.01,.13,.1,.2,.17Z"/><path class="cls-1" d="M120.69,171.83c.32,.04,.26,.33,.32,.51,.77,2.31,1.51,4.62,2.26,6.94,.78,2.4,1.55,4.8,2.32,7.2,.06,.17,.32,.43-.03,.54-.34,.1-.29-.28-.34-.44-1.55-4.73-3.08-9.47-4.61-14.2-.06-.18-.29-.4,.08-.54Z"/><path class="cls-1" d="M122.47,187.57c.09,.31,.03,.44-.12,.45-.29,.03-.22-.23-.26-.37-.75-2.57-1.49-5.14-2.22-7.71-.64-2.23-1.28-4.46-1.91-6.7-.05-.19-.28-.46,.04-.56,.35-.11,.28,.28,.33,.45,1.38,4.78,2.75,9.56,4.12,14.35,.02,.08,.06,.17,.03,.1Z"/><path class="cls-1" d="M51.11,180.38c-.2-.04-.26-.13-.18-.29,.07-.14,.14-.27,.22-.41,2.28-4.3,4.56-8.59,6.85-12.89,.01-.02,.02-.05,.03-.06,.18-.14,.12-.65,.49-.45,.3,.16-.03,.42-.13,.61-1.35,2.56-2.71,5.12-4.07,7.68-.95,1.8-1.91,3.59-2.87,5.39-.09,.16-.12,.39-.33,.42Z"/><path class="cls-1" d="M32.07,167.02c-.1-.06-.17-.09-.2-.14-.13-.19,.05-.28,.15-.38,.99-1.11,1.98-2.21,2.97-3.31,2.37-2.63,4.74-5.27,7.12-7.89,.11-.13,.2-.49,.48-.23,.23,.22-.07,.35-.18,.47-3.34,3.72-6.69,7.44-10.04,11.16-.1,.11-.2,.22-.3,.32Z"/><path class="cls-1" d="M186.29,63.43c-.13,.06-.29,.14-.46,.2-3.9,1.42-7.8,2.84-11.71,4.26-.73,.26-1.45,.55-2.18,.78-.21,.07-.53,.41-.67,0-.11-.32,.32-.29,.51-.36,3.42-1.26,6.85-2.5,10.27-3.75,1.27-.46,2.54-.91,3.8-1.38,.21-.08,.39-.17,.43,.23Z"/><path class="cls-1" d="M147.49,157.04c.1,.11,.19,.2,.28,.31,3.23,3.85,6.47,7.7,9.69,11.56,.09,.11,.42,.21,.15,.46-.27,.25-.33-.07-.43-.19-3.24-3.85-6.47-7.7-9.7-11.56-.1-.12-.31-.21-.21-.42,.03-.07,.13-.1,.22-.17Z"/><path class="cls-1" d="M49.21,160.47c-.09,.13-.17,.24-.24,.35-2.94,4.05-5.88,8.1-8.83,12.14-.1,.14-.16,.52-.47,.27-.25-.2,.05-.35,.15-.48,2.93-4.05,5.88-8.1,8.82-12.15,.09-.13,.14-.36,.38-.28,.07,.02,.13,.1,.19,.16Z"/><path class="cls-1" d="M138.09,181.82c.02,.13-.03,.2-.11,.24-.09,.05-.18,.02-.23-.06-.08-.13-.14-.27-.21-.41-2.14-4.39-4.29-8.79-6.43-13.18-.06-.12-.13-.23-.18-.36-.04-.11-.17-.24,.02-.33,.19-.1,.28,0,.35,.17,.04,.1,.1,.2,.14,.3,2.15,4.41,4.31,8.82,6.46,13.23,.07,.14,.13,.28,.18,.39Z"/><path class="cls-1" d="M187.25,125.53c-.06,.36-.26,.25-.45,.19-1.3-.43-2.61-.84-3.92-1.27-3.43-1.11-6.86-2.23-10.29-3.34-.15-.05-.3-.09-.44-.15-.09-.03-.14-.11-.12-.21,.02-.13,.1-.19,.23-.16,.13,.03,.25,.08,.38,.12,4.71,1.53,9.43,3.05,14.14,4.59,.16,.05,.41,0,.46,.23Z"/><path class="cls-1" d="M155.8,42.67c-.08-.06-.14-.11-.2-.17-.09-.09-.03-.15,.04-.21,.07-.06,.13-.12,.2-.18,3.72-3.35,7.44-6.7,11.17-10.05,.13-.12,.27-.46,.52-.16,.21,.26-.13,.33-.24,.43-3.71,3.36-7.43,6.71-11.15,10.06-.1,.09-.2,.17-.32,.28Z"/><path class="cls-1" d="M126.09,5.06c-.02,.07-.06,.17-.1,.27-1.53,4.71-3.06,9.43-4.59,14.15-.04,.13-.08,.25-.13,.38-.04,.09-.11,.13-.21,.12-.13-.02-.19-.11-.16-.24,.02-.11,.06-.21,.09-.32,1.54-4.76,3.08-9.51,4.64-14.27,.04-.13-.05-.47,.31-.37,.13,.03,.18,.11,.14,.28Z"/><path class="cls-1" d="M54.47,9.6c.21,.09,.23,.31,.31,.48,2.16,4.41,4.31,8.82,6.46,13.24,.06,.12,.13,.23,.17,.36,.03,.09,.13,.2-.02,.28-.13,.07-.26,.06-.33-.09-.05-.1-.1-.2-.15-.3-2.17-4.45-4.34-8.9-6.51-13.36-.06-.12-.13-.24-.16-.36-.05-.17,.06-.24,.22-.25Z"/><path class="cls-1" d="M43,36.2c-.06,.08-.11,.14-.16,.2-.08,.09-.15,.04-.21-.03-.09-.1-.18-.2-.26-.3-3.31-3.67-6.61-7.34-9.92-11.01-.07-.08-.15-.17-.22-.25-.11-.11-.12-.22,0-.34,.17-.16,.23,0,.31,.09,.67,.74,1.34,1.48,2.01,2.22,2.7,3,5.39,5.99,8.09,8.99,.12,.13,.23,.26,.37,.42Z"/><path class="cls-1" d="M182.4,54.07c0,.28-.26,.28-.42,.36-2.36,1.16-4.73,2.31-7.09,3.46-2.11,1.03-4.21,2.06-6.33,3.07-.15,.07-.37,.38-.53,.04-.13-.29,.19-.31,.34-.38,4.49-2.2,8.98-4.39,13.47-6.57,.17-.08,.37-.32,.55,.01Z"/><path class="cls-1" d="M16.25,87.44c-3.98-.42-7.91-.83-11.85-1.24-1.01-.11-2.02-.21-3.03-.33-.17-.02-.48,.1-.46-.21,.02-.36,.35-.19,.52-.17,2.2,.22,4.4,.45,6.6,.69,2.75,.29,5.5,.58,8.25,.89,.17,.02,.52-.14,.47,.23-.04,.35-.36,.11-.51,.16Z"/><path class="cls-1" d="M24.34,130.76c-.06,.24-.29,.26-.45,.34-2.92,1.43-5.84,2.85-8.76,4.28-1.53,.75-3.06,1.5-4.59,2.23-.17,.08-.41,.37-.56,.04-.14-.31,.24-.32,.4-.4,4.45-2.18,8.9-4.35,13.35-6.52,.16-.08,.32-.26,.54-.15,.04,.02,.05,.12,.08,.18Z"/><path class="cls-1" d="M149.56,155.17c.13,.13,.22,.23,.31,.32,3.37,3.74,6.73,7.47,10.09,11.21,.11,.13,.41,.26,.16,.47-.29,.25-.36-.12-.48-.25-3.35-3.7-6.68-7.4-10.01-11.11-.11-.12-.31-.21-.25-.43,.02-.08,.1-.14,.17-.23Z"/><path class="cls-1" d="M71.41,172.06s-.05,.14-.08,.25c-1.54,4.74-3.07,9.47-4.62,14.2-.05,.14,.04,.48-.29,.41-.39-.09-.13-.35-.08-.52,1.54-4.76,3.08-9.51,4.63-14.27,.05-.16,0-.45,.32-.39,.14,.02,.15,.14,.11,.33Z"/><path class="cls-1" d="M87.77,175.76c-.42,3.99-.84,7.95-1.25,11.91-.11,1.01-.21,2.02-.33,3.04-.02,.17,.08,.46-.26,.41-.27-.05-.15-.29-.13-.44,.18-1.81,.37-3.61,.56-5.41,.34-3.17,.67-6.34,1.02-9.5,.02-.17-.17-.52,.21-.5,.36,.02,.13,.35,.18,.5Z"/><path class="cls-1" d="M36.76,149.34l-.23,.21c-3.74,3.37-7.47,6.73-11.21,10.09-.13,.11-.26,.41-.47,.17-.27-.28,.12-.37,.24-.48,3.7-3.35,7.4-6.68,11.11-10.01,.13-.12,.23-.38,.48-.22,.05,.03,.16,.1,.09,.23Z"/><path class="cls-1" d="M5.36,65.91c.15,.05,.29,.09,.44,.14,4.65,1.51,9.3,3.02,13.95,4.53,.13,.04,.25,.08,.38,.12,.12,.04,.19,.11,.16,.24-.04,.18-.17,.18-.31,.13-.4-.13-.8-.26-1.2-.39-4.4-1.43-8.8-2.85-13.19-4.28-.11-.03-.21-.08-.31-.11-.15-.03-.24-.08-.17-.26,.05-.13,.12-.17,.25-.13Z"/><path class="cls-1" d="M138.41,163.62c.23,.07,.27,.28,.37,.44,2.39,3.82,4.78,7.65,7.17,11.47,.28,.45,.56,.9,.85,1.35,.07,.11,.14,.22-.03,.33-.16,.1-.24,.01-.31-.11-.04-.06-.07-.11-.11-.17-2.67-4.27-5.34-8.55-8-12.83-.07-.11-.27-.21-.1-.39,.04-.05,.11-.07,.17-.1Z"/><path class="cls-1" d="M24.34,60.81c-.17-.09-.29-.15-.41-.21-4.45-2.17-8.91-4.34-13.36-6.51-.1-.05-.2-.1-.3-.14-.15-.06-.22-.14-.13-.3,.09-.17,.2-.12,.33-.05,.06,.03,.12,.05,.18,.08,4.49,2.19,8.98,4.39,13.48,6.58,.1,.05,.2,.1,.3,.15,.14,.06,.13,.15,.05,.26-.05,.06-.07,.17-.13,.14Z"/><path class="cls-1" d="M177.58,45.34c-.05,.22-.27,.26-.43,.36-3.47,2.17-6.93,4.34-10.4,6.5-.73,.46-1.46,.92-2.2,1.36-.15,.09-.33,.43-.53,.14-.23-.34,.19-.37,.35-.48,3.46-2.18,6.93-4.34,10.4-6.51,.79-.49,1.58-.98,2.36-1.48,.19-.12,.35-.2,.45,.1Z"/><path class="cls-1" d="M131.45,24.22c-.09-.09-.3-.07-.22-.27,.05-.12,.12-.24,.18-.36,2.17-4.45,4.34-8.91,6.51-13.36,.06-.12,.11-.24,.17-.36,.05-.09,.12-.12,.21-.08,.1,.05,.21,.1,.15,.24-.06,.14-.14,.28-.2,.42-2.15,4.41-4.3,8.83-6.46,13.24-.09,.18-.12,.42-.34,.52Z"/><path class="cls-1" d="M61.14,167.65c-.08,.16-.13,.28-.19,.4-2.19,4.49-4.38,8.99-6.58,13.48-.07,.14-.06,.48-.35,.36-.37-.15-.07-.38,0-.53,2.18-4.5,4.38-8.99,6.58-13.48,.07-.14,.03-.44,.35-.35,.07,.02,.13,.09,.19,.13Z"/><path class="cls-1" d="M15.04,146.54c-.16,.06-.18-.04-.24-.11-.07-.08-.04-.17,.03-.23,.1-.08,.22-.14,.33-.21,4.22-2.64,8.43-5.27,12.65-7.91,.09-.06,.19-.11,.28-.17,.08-.05,.15-.07,.22,.03,.06,.1,.13,.19,.01,.29-.1,.08-.22,.15-.33,.22-4.22,2.64-8.44,5.27-12.65,7.91l-.3,.19Z"/><path class="cls-1" d="M54.16,27.86c-.09,.14-.19,.28-.35,.14-.11-.09-.18-.25-.26-.38-2.61-4.18-5.22-8.36-7.84-12.54-.07-.11-.14-.23-.21-.34-.07-.11-.06-.19,.06-.27,.12-.08,.21-.05,.28,.05,.08,.11,.14,.22,.21,.34,2.61,4.18,5.22,8.36,7.83,12.54,.09,.15,.19,.3,.28,.45Z"/><path class="cls-1" d="M89.51,.76c0,.08,0-.01,0-.1,.02-.15-.11-.39,.18-.41,.3-.02,.2,.24,.21,.39,.09,1.21,.18,2.43,.26,3.64,.25,3.62,.52,7.24,.75,10.86,.02,.32,.31,.91-.14,.95-.41,.04-.2-.56-.23-.87-.36-4.77-.69-9.54-1.04-14.47Z"/><path class="cls-1" d="M1.29,102.5c-.11,0-.22,0-.33,0-.14,0-.34,.08-.36-.16-.03-.3,.2-.23,.36-.24,1.06-.08,2.12-.16,3.18-.23,3.91-.27,7.81-.55,11.72-.82,.11,0,.22-.01,.33-.01,.13,0,.27-.02,.3,.17,.03,.25-.15,.22-.29,.23-1.02,.08-2.03,.15-3.05,.22-3.95,.27-7.9,.54-11.86,.82v.03Z"/><path class="cls-1" d="M102.82,190.96c0-.09,0,.02,0,.13,0,.15,.06,.33-.19,.34-.25,.01-.2-.18-.21-.32-.09-1.24-.18-2.47-.26-3.71-.25-3.62-.52-7.24-.75-10.86-.02-.32-.32-.91,.14-.95,.41-.04,.2,.57,.23,.87,.36,4.77,.69,9.54,1.04,14.5Z"/><path class="cls-1" d="M191.02,89.19c.09,0,.18-.01,.26,0,.17,.03,.45-.14,.45,.2,0,.28-.25,.18-.4,.2-3.05,.22-6.09,.44-9.14,.65-1.81,.13-3.62,.25-5.43,.38-.13,0-.27,.04-.4,.02-.18-.03-.51,.17-.51-.2,0-.3,.3-.18,.46-.19,.97-.09,1.94-.16,2.91-.23,3.93-.27,7.86-.54,11.79-.81v-.02Z"/><path class="cls-1" d="M182.23,137.94c-.12,.36-.31,.18-.48,.09-1.17-.57-2.35-1.14-3.52-1.72-3.32-1.62-6.64-3.24-9.96-4.86-.12-.06-.23-.13-.35-.18-.13-.06-.14-.14-.07-.25,.06-.1,.11-.19,.25-.1,.09,.06,.2,.1,.3,.15,4.47,2.18,8.95,4.36,13.42,6.55,.16,.08,.41,.07,.42,.31Z"/><path class="cls-1" d="M176.05,87.86c-.15-.04-.39,.14-.43-.14-.05-.34,.24-.24,.41-.26,4.93-.53,9.86-1.05,14.79-1.57,.09,0,.18-.02,.26-.02,.14,.01,.33-.1,.37,.14,.04,.29-.19,.24-.35,.26-1.14,.13-2.29,.25-3.43,.37-3.79,.4-7.57,.8-11.36,1.2-.09,0-.18,.01-.27,.02Z"/><path class="cls-1" d="M88.18,15.95c-.05,.15,.16,.43-.19,.44-.28,0-.19-.25-.21-.4-.53-4.95-1.05-9.91-1.58-14.86,0-.04-.02-.09,0-.13,.03-.17-.16-.45,.19-.46,.28,0,.19,.25,.21,.4,.13,1.12,.25,2.24,.37,3.37,.4,3.81,.8,7.62,1.2,11.43,0,.07,.01,.13,.02,.21Z"/><path class="cls-1" d="M104.15,175.73c.05-.15-.16-.43,.2-.43,.28,0,.19,.25,.2,.41,.53,4.93,1.05,9.86,1.57,14.79,0,.09,.02,.18,.02,.26,0,.16,.11,.39-.2,.39-.24,0-.18-.2-.2-.34-.13-1.17-.26-2.33-.38-3.5-.4-3.76-.79-7.53-1.19-11.3,0-.09-.02-.18-.02-.28Z"/><path class="cls-1" d="M1.32,105.82c-.15-.05-.44,.16-.45-.18,0-.32,.29-.2,.46-.22,4.91-.53,9.82-1.05,14.73-1.57,.11-.01,.22-.02,.33-.02,.15,0,.33-.06,.34,.19,0,.24-.19,.2-.33,.21-1.14,.13-2.29,.25-3.43,.37-3.81,.4-7.62,.8-11.43,1.2-.07,0-.13,.01-.21,.02Z"/><path class="cls-1" d="M189.21,72.88c-.06,.31-.34,.26-.52,.3-1.97,.51-3.95,.99-5.92,1.48-2.79,.69-5.58,1.39-8.37,2.08-.11,.03-.22,.05-.32,.07-.15,.03-.31,.12-.37-.11-.06-.24,.15-.24,.28-.27,1.01-.26,2.02-.5,3.03-.75,3.88-.97,7.77-1.93,11.65-2.9,.18-.05,.41-.24,.55,.09Z"/><path class="cls-1" d="M3.47,118.96c-.22,.06-.31,0-.33-.17-.02-.25,.19-.2,.32-.24,1.33-.34,2.66-.68,3.99-1.01,3.5-.87,7-1.74,10.5-2.62,.15-.04,.3-.06,.45-.1,.14-.04,.2,.04,.24,.15,.05,.15-.06,.19-.16,.23-.06,.03-.13,.04-.19,.05-4.89,1.22-9.79,2.44-14.68,3.65-.06,.02-.13,.04-.13,.04Z"/><path class="cls-1" d="M115.16,173.65c-.07-.18,.03-.27,.18-.27,.22-.01,.21,.19,.24,.33,.34,1.35,.67,2.7,1.01,4.06,.88,3.52,1.75,7.04,2.62,10.56,.04,.18,.29,.44-.07,.54-.33,.09-.26-.26-.29-.4-1.22-4.85-2.43-9.7-3.64-14.55-.02-.09-.03-.17-.05-.26Z"/><path class="cls-1" d="M77.17,18.04c.07,.18-.04,.27-.18,.27-.22,.01-.21-.19-.24-.33-.34-1.35-.67-2.7-1.01-4.06-.88-3.52-1.75-7.04-2.62-10.56-.04-.18-.29-.44,.07-.54,.33-.08,.25,.26,.29,.4,1.22,4.85,2.43,9.7,3.64,14.55,.02,.09,.03,.17,.05,.26Z"/></svg>