<?xml version="1.0" standalone="no"?>
<!DOCTYPE svg PUBLIC "-//W3C//DTD SVG 20010904//EN"
 "http://www.w3.org/TR/2001/REC-SVG-20010904/DTD/svg10.dtd">
<svg version="1.0" xmlns="http://www.w3.org/2000/svg"
 width="700.000000pt" height="700.000000pt" viewBox="0 0 700.000000 700.000000"
 preserveAspectRatio="xMidYMid meet">
<metadata>
Created by potrace 1.14, written by Peter Selinger 2001-2017
</metadata>
<g transform="translate(0.000000,700.000000) scale(0.100000,-0.100000)"
fill="#000000" stroke="none">
<path d="M6225 6703 c-136 -24 -317 -118 -633 -330 -84 -57 -158 -108 -165
-113 -7 -5 -67 -50 -133 -99 -67 -49 -130 -96 -140 -105 -11 -8 -57 -45 -104
-81 -47 -36 -92 -71 -100 -78 -8 -7 -62 -50 -120 -97 -58 -47 -116 -95 -130
-108 -17 -15 -33 -21 -50 -17 -14 2 -38 7 -55 9 -40 7 -235 37 -260 41 -11 2
-47 8 -80 13 -33 6 -78 14 -100 17 -22 3 -78 12 -125 19 -47 8 -106 17 -131
21 -25 3 -57 8 -70 10 -116 19 -149 25 -184 30 -57 8 -80 12 -165 26 -41 6
-81 12 -87 12 -19 0 -17 4 28 44 92 84 93 153 0 240 -53 50 -122 55 -172 12
-31 -27 -173 -156 -218 -197 -33 -32 -38 -33 -91 -28 -30 3 -66 8 -80 10 -14
3 -43 7 -65 11 -22 3 -98 15 -170 26 -71 11 -146 22 -165 24 -42 5 -179 26
-200 30 -9 2 -43 7 -75 11 -33 4 -62 9 -65 9 -3 1 -36 5 -75 10 -38 5 -72 10
-75 10 -15 5 -136 19 -143 17 -17 -5 -4 15 40 60 44 44 47 51 46 98 -1 41 -6
56 -34 87 -53 61 -77 76 -123 77 -29 0 -51 -7 -70 -22 -23 -18 -186 -166 -247
-223 -9 -10 -29 -16 -45 -14 -27 2 -117 13 -174 20 -26 3 -191 22 -270 30 -25
3 -63 8 -85 11 -153 19 -401 28 -432 15 -35 -14 -77 -66 -106 -129 -18 -38
-22 -66 -22 -142 0 -89 2 -99 37 -170 20 -41 56 -96 80 -121 52 -56 167 -149
184 -149 7 0 14 -4 16 -9 5 -14 412 -216 768 -381 69 -32 166 -77 215 -100 50
-23 135 -62 190 -87 55 -25 142 -65 194 -89 51 -24 95 -44 97 -44 2 0 47 -20
100 -45 53 -25 97 -45 99 -45 2 0 36 -15 77 -34 40 -19 93 -43 118 -54 25 -11
203 -90 395 -176 193 -87 358 -158 367 -159 14 -1 15 -4 5 -17 -7 -8 -17 -19
-23 -25 -10 -10 -172 -195 -261 -300 -23 -28 -66 -79 -94 -115 -28 -36 -55
-67 -58 -70 -4 -3 -27 -32 -52 -65 -24 -33 -46 -62 -50 -65 -23 -20 -318 -428
-444 -613 -70 -102 -381 -575 -411 -623 -9 -16 -18 -17 -112 -5 -56 7 -110 14
-119 16 -10 1 -47 6 -83 10 -36 4 -74 9 -85 10 -11 2 -65 8 -120 14 -95 11
-124 15 -212 26 -244 30 -455 36 -498 15 -43 -22 -57 -70 -37 -130 23 -69 42
-91 97 -115 27 -13 94 -44 148 -69 55 -25 100 -46 102 -46 2 0 55 -25 120 -55
64 -30 118 -55 120 -55 1 0 59 -26 126 -58 68 -32 159 -74 201 -92 43 -19 77
-37 77 -40 0 -3 -28 -35 -63 -72 -35 -37 -81 -89 -102 -115 -22 -26 -42 -50
-45 -53 -3 -3 -31 -39 -63 -80 -59 -79 -126 -200 -126 -231 0 -46 56 -57 124
-23 16 8 33 14 38 14 25 0 277 169 438 293 55 43 66 48 86 38 13 -6 24 -15 24
-20 0 -5 38 -91 84 -192 45 -101 93 -206 106 -234 58 -128 217 -448 258 -520
80 -138 150 -187 218 -152 57 30 67 49 59 119 -4 35 -9 70 -10 79 -2 9 -6 40
-9 70 -4 30 -11 83 -16 119 -5 36 -12 83 -14 105 -6 52 -46 363 -51 395 -2 14
-7 50 -10 80 -3 30 -8 66 -10 80 -2 14 -7 48 -10 76 -3 28 -8 61 -10 74 -2 13
-7 55 -11 94 l-6 72 108 73 c60 41 120 83 134 93 14 11 99 75 190 144 91 68
235 177 320 241 379 286 536 413 714 578 6 6 58 53 115 105 58 52 125 114 150
137 l46 42 12 -27 c7 -15 77 -182 157 -372 79 -190 183 -437 231 -550 48 -113
104 -245 125 -295 37 -88 228 -530 255 -590 7 -16 62 -138 121 -270 226 -509
288 -621 400 -731 62 -60 154 -117 209 -129 125 -28 252 1 336 76 l34 30 -1
152 c0 130 -7 263 -18 382 -6 54 -18 189 -21 230 -5 56 -16 155 -21 186 -4 30
-2 32 131 154 132 120 175 165 176 184 0 9 2 23 4 32 5 30 -31 94 -75 132 -71
61 -125 49 -227 -47 -26 -25 -48 -44 -49 -43 -3 3 -12 67 -19 132 -3 33 -8 71
-10 85 -3 14 -7 57 -11 95 -3 39 -8 77 -9 86 -2 9 -6 40 -10 70 -7 65 -24 199
-31 254 -10 74 -13 100 -24 195 -6 52 -13 106 -16 120 -12 77 -15 143 -7 149
40 25 223 208 231 229 14 40 6 80 -23 121 -65 95 -148 110 -226 42 -33 -28
-42 -29 -45 -6 -1 11 -5 40 -8 65 -3 25 -8 63 -11 85 -3 22 -10 76 -15 120 -6
44 -13 97 -16 117 -3 21 -6 50 -8 66 -2 16 -9 64 -15 108 -16 108 -19 130 -26
199 -4 33 -8 67 -10 75 -2 8 -6 33 -9 55 -14 107 -17 131 -21 145 -2 8 -6 40
-10 71 -3 31 -7 65 -9 75 -5 24 -18 135 -19 152 -1 17 -7 15 -35 -10 -14 -13
35 49 107 137 284 343 483 611 739 995 181 272 238 379 250 465 28 219 -88
394 -288 433 -52 10 -140 13 -185 5z"/>
</g>
</svg>
